<svg width="155" height="21" viewBox="0 0 155 21" fill="none" xmlns="http://www.w3.org/2000/svg">
<path d="M64.9141 13.0156C64.9141 12.5729 64.7578 12.2344 64.4453 12C64.1328 11.7604 63.5703 11.5104 62.7578 11.25C61.9453 10.9844 61.3021 10.724 60.8281 10.4688C59.5365 9.77083 58.8906 8.83073 58.8906 7.64844C58.8906 7.03385 59.0625 6.48698 59.4062 6.00781C59.7552 5.52344 60.2526 5.14583 60.8984 4.875C61.5495 4.60417 62.2786 4.46875 63.0859 4.46875C63.8984 4.46875 64.6224 4.61719 65.2578 4.91406C65.8932 5.20573 66.3854 5.61979 66.7344 6.15625C67.0885 6.69271 67.2656 7.30208 67.2656 7.98438H64.9219C64.9219 7.46354 64.7578 7.0599 64.4297 6.77344C64.1016 6.48177 63.6406 6.33594 63.0469 6.33594C62.474 6.33594 62.0286 6.45833 61.7109 6.70312C61.3932 6.94271 61.2344 7.26042 61.2344 7.65625C61.2344 8.02604 61.4193 8.33594 61.7891 8.58594C62.1641 8.83594 62.7135 9.07031 63.4375 9.28906C64.7708 9.6901 65.7422 10.1875 66.3516 10.7812C66.9609 11.375 67.2656 12.1146 67.2656 13C67.2656 13.9844 66.8932 14.7578 66.1484 15.3203C65.4036 15.8776 64.401 16.1562 63.1406 16.1562C62.2656 16.1562 61.4688 15.9974 60.75 15.6797C60.0312 15.3568 59.4818 14.9167 59.1016 14.3594C58.7266 13.8021 58.5391 13.1562 58.5391 12.4219H60.8906C60.8906 13.6771 61.6406 14.3047 63.1406 14.3047C63.6979 14.3047 64.1328 14.1927 64.4453 13.9688C64.7578 13.7396 64.9141 13.4219 64.9141 13.0156Z" fill="white"/>
<path d="M78.2031 10.5703C78.2031 11.6901 78.0052 12.6719 77.6094 13.5156C77.2135 14.3594 76.6458 15.0104 75.9062 15.4688C75.1719 15.9271 74.3281 16.1562 73.375 16.1562C72.4323 16.1562 71.5911 15.9297 70.8516 15.4766C70.112 15.0234 69.5391 14.3776 69.1328 13.5391C68.7266 12.6953 68.5208 11.7266 68.5156 10.6328V10.0703C68.5156 8.95052 68.7161 7.96615 69.1172 7.11719C69.5234 6.26302 70.0938 5.60938 70.8281 5.15625C71.5677 4.69792 72.4115 4.46875 73.3594 4.46875C74.3073 4.46875 75.1484 4.69792 75.8828 5.15625C76.6224 5.60938 77.1927 6.26302 77.5938 7.11719C78 7.96615 78.2031 8.94792 78.2031 10.0625V10.5703ZM75.8281 10.0547C75.8281 8.86198 75.6146 7.95573 75.1875 7.33594C74.7604 6.71615 74.151 6.40625 73.3594 6.40625C72.5729 6.40625 71.9661 6.71354 71.5391 7.32812C71.112 7.9375 70.8958 8.83333 70.8906 10.0156V10.5703C70.8906 11.7318 71.1042 12.6328 71.5312 13.2734C71.9583 13.9141 72.5729 14.2344 73.375 14.2344C74.1615 14.2344 74.7656 13.9271 75.1875 13.3125C75.6094 12.6927 75.8229 11.7917 75.8281 10.6094V10.0547Z" fill="white"/>
<path d="M88.5156 4.625V12.1172C88.5156 13.362 88.125 14.3464 87.3438 15.0703C86.5677 15.7943 85.5052 16.1562 84.1562 16.1562C82.8281 16.1562 81.7734 15.8047 80.9922 15.1016C80.2109 14.3984 79.8125 13.4323 79.7969 12.2031V4.625H82.1406V12.1328C82.1406 12.8776 82.3177 13.4219 82.6719 13.7656C83.0312 14.1042 83.526 14.2734 84.1562 14.2734C85.474 14.2734 86.1432 13.5807 86.1641 12.1953V4.625H88.5156Z" fill="white"/>
<path d="M99.6875 16H97.3438L92.7812 8.51562V16H90.4375V4.625H92.7812L97.3516 12.125V4.625H99.6875V16Z" fill="white"/>
<path d="M101.734 16V4.625H105.234C106.234 4.625 107.128 4.85156 107.914 5.30469C108.706 5.7526 109.323 6.39323 109.766 7.22656C110.208 8.05469 110.43 8.9974 110.43 10.0547V10.5781C110.43 11.6354 110.211 12.5755 109.773 13.3984C109.341 14.2214 108.729 14.8594 107.938 15.3125C107.146 15.7656 106.253 15.9948 105.258 16H101.734ZM104.078 6.52344V14.1172H105.211C106.128 14.1172 106.828 13.8177 107.312 13.2188C107.797 12.6198 108.044 11.763 108.055 10.6484V10.0469C108.055 8.89062 107.815 8.01562 107.336 7.42188C106.857 6.82292 106.156 6.52344 105.234 6.52344H104.078Z" fill="white"/>
<path d="M121 12.7188L122.531 4.625H124.867L122.344 16H119.984L118.133 8.39062L116.281 16H113.922L111.398 4.625H113.734L115.273 12.7031L117.148 4.625H119.133L121 12.7188Z" fill="white"/>
<path d="M132.219 13.6562H128.109L127.328 16H124.836L129.07 4.625H131.242L135.5 16H133.008L132.219 13.6562ZM128.742 11.7578H131.586L130.156 7.5L128.742 11.7578Z" fill="white"/>
<path d="M140.156 13.1797L142.734 4.625H145.344L141.383 16H138.938L134.992 4.625H137.594L140.156 13.1797Z" fill="white"/>
<path d="M153.266 11.0703H148.766V14.1172H154.047V16H146.422V4.625H154.031V6.52344H148.766V9.23438H153.266V11.0703Z" fill="white"/>
<path d="M54 10H55V11H54V10Z" fill="white"/>
<path d="M20 10H21V11H20V10Z" fill="white"/>
<path d="M0 10H1V11H0V10Z" fill="white"/>
<path d="M22 10H23V11H22V10Z" fill="white"/>
<path d="M24 10H25V12H24V10Z" fill="white"/>
<path d="M2 10H3V12H2V10Z" fill="white"/>
<path d="M26 10H27V13H26V10Z" fill="white"/>
<path d="M4 10H5V12H4V10Z" fill="white"/>
<path d="M28 9H29V14H28V9Z" fill="white"/>
<path d="M6 8H7V13H6V8Z" fill="white"/>
<path d="M30 9H31V11H30V9Z" fill="white"/>
<path d="M8 9H9V13H8V9Z" fill="white"/>
<path d="M32 8H33V15H32V8Z" fill="white"/>
<path d="M10 6H11V14H10V6Z" fill="white"/>
<path d="M34 6H35V16H34V6Z" fill="white"/>
<path d="M12 7H13V16H12V7Z" fill="white"/>
<path d="M36 7H37V15H36V7Z" fill="white"/>
<path d="M14 6H15V17H14V6Z" fill="white"/>
<path d="M38 5H39V18H38V5Z" fill="white"/>
<path d="M16 3H17V18H16V3Z" fill="white"/>
<path d="M40 2H41V17H40V2Z" fill="white"/>
<path d="M18 0H19V21H18V0Z" fill="white"/>
<path d="M42 0H43V20H42V0Z" fill="white"/>
<path d="M20 4H21V17H20V4Z" fill="white"/>
<path d="M44 3H45V17H44V3Z" fill="white"/>
<path d="M22 6H23V18H22V6Z" fill="white"/>
<path d="M46 6H47V14H46V6Z" fill="white"/>
<path d="M24 5H25V14H24V5Z" fill="white"/>
<path d="M48 8H49V12H48V8Z" fill="white"/>
<path d="M26 8H27V12H26V8Z" fill="white"/>
<path d="M50 9H51V13H50V9Z" fill="white"/>
<path d="M28 10H29V11H28V10Z" fill="white"/>
<path d="M52 9H53V12H52V9Z" fill="white"/>
</svg>
